<svg width="13" height="14" viewBox="0 0 13 14" fill="none" xmlns="http://www.w3.org/2000/svg">
<path d="M4.98667 12.9733H2V4.01333H10V5.98667H11.0133V3.48L10.48 3H8.98667V1.98667H8.02667C8.02667 1.45333 7.83111 0.991111 7.44 0.599999C7.04889 0.208889 6.56889 0.0133333 6 0.0133333C5.43111 0.0133333 4.95111 0.208889 4.56 0.599999C4.20444 0.991111 4.02667 1.45333 4.02667 1.98667H2.96V3H1.52L0.986667 3.48V13.5067L1.52 13.9867H4.98667V12.9733ZM4.98667 1.77333C5.02222 1.59555 5.11111 1.43556 5.25333 1.29333C5.43111 1.11556 5.60889 1.00889 5.78667 0.973333C6 0.937778 6.19556 0.955556 6.37333 1.02667C6.55111 1.09778 6.69333 1.22222 6.8 1.4C6.94222 1.57778 7.01333 1.75556 7.01333 1.93333C7.01333 2.11111 6.96 2.28889 6.85333 2.46667C6.78222 2.64444 6.65778 2.78667 6.48 2.89333C6.30222 2.96444 6.10667 3 5.89333 3C5.71556 2.96444 5.55556 2.89333 5.41333 2.78667C5.27111 2.68 5.14667 2.53778 5.04 2.36C4.96889 2.18222 4.95111 1.98667 4.98667 1.77333ZM12.08 11.2667L11.0133 12.3333V7H10V12.3333L8.93333 11.2667L8.18667 11.96L10.16 13.88H10.8533L12.7733 11.96L12.08 11.2667ZM6.16 7.10667H6.85333L8.82667 9.02667L8.08 9.72L7.01333 8.65333V13.9867H6V8.65333L4.93333 9.72L4.24 9.02667L6.16 7.10667Z" fill="#CCCCCC"/>
</svg>
