<svg width="15" height="14" viewBox="0 0 15 14" fill="none" xmlns="http://www.w3.org/2000/svg">
<path d="M0.986667 0.0133333H12.0267L12.9867 0.973333V6.30667C12.6667 6.16444 12.3289 6.05778 11.9733 5.98667V0.973333H7.01333V11.8533L5.89333 12.9733H0.986667L0.0266666 12.0133V0.973333L0.986667 0.0133333ZM0.986667 12.0133H6V0.973333H0.986667V12.0133ZM11.3867 7C10.96 7 10.5689 7.12444 10.2133 7.37333H10.16C9.55556 7.72889 9.16444 8.26222 8.98667 8.97333C8.84444 9.64889 8.96889 10.2889 9.36 10.8933L7.01333 13.24L7.70667 13.9333L10.0533 11.5867C10.3733 11.8 10.7289 11.9422 11.12 12.0133C11.5467 12.0489 11.9378 11.9956 12.2933 11.8533C12.6844 11.7111 13.0044 11.4978 13.2533 11.2133C13.5378 10.9289 13.7333 10.6089 13.84 10.2533C13.9822 9.86222 14.0178 9.47111 13.9467 9.08C13.8756 8.68889 13.7156 8.33333 13.4667 8.01333C13.2533 7.69333 12.9511 7.44444 12.56 7.26667C12.2044 7.08889 11.8133 7 11.3867 7ZM11.6 11C11.2444 11.0356 10.9244 10.9644 10.64 10.7867C10.3911 10.5733 10.1956 10.3422 10.0533 10.0933C9.94667 9.80889 9.92889 9.52444 10 9.24C10.0711 8.92 10.2133 8.65333 10.4267 8.44C10.64 8.22667 10.8889 8.10222 11.1733 8.06667C11.4578 7.99556 11.7422 8.01333 12.0267 8.12C12.3111 8.22667 12.5244 8.40444 12.6667 8.65333C12.8444 8.86667 12.9333 9.11556 12.9333 9.4C12.9689 9.64889 12.9333 9.89778 12.8267 10.1467C12.72 10.3956 12.56 10.5911 12.3467 10.7333C12.1333 10.8756 11.8844 10.9644 11.6 11Z" fill="#CCCCCC"/>
</svg>
