<svg width="14" height="13" viewBox="0 0 14 13" fill="none" xmlns="http://www.w3.org/2000/svg">
<path d="M7.48 0.0133333C8.65333 0.0133333 9.73778 0.315556 10.7333 0.92C11.7289 1.48889 12.5111 2.27111 13.08 3.26667C13.6844 4.26222 13.9867 5.34667 13.9867 6.52C13.9867 7.69333 13.6844 8.77778 13.08 9.77333C12.5111 10.7689 11.7289 11.5511 10.7333 12.12C9.73778 12.6889 8.65333 12.9733 7.48 12.9733C6.30667 12.9733 5.22222 12.6889 4.22667 12.12C3.23111 11.5511 2.43111 10.7689 1.82667 9.77333C1.25778 8.77778 0.973333 7.69333 0.973333 6.52C0.973333 5.34667 1.25778 4.26222 1.82667 3.26667C2.43111 2.27111 3.23111 1.48889 4.22667 0.92C5.22222 0.315556 6.30667 0.0133333 7.48 0.0133333ZM12.3867 4.01333C12.0667 3.37333 11.64 2.82222 11.1067 2.36C10.5733 1.89778 9.98667 1.56 9.34667 1.34667C9.77333 2.16444 10.0933 3.05333 10.3067 4.01333H12.3867ZM12.9733 7C13.0089 6.82222 13.0267 6.66222 13.0267 6.52C12.9911 5.98667 12.92 5.48889 12.8133 5.02667H10.4667C10.5022 5.38222 10.52 5.70222 10.52 5.98667C10.52 6.66222 10.4489 7.33778 10.3067 8.01333H12.8133C12.8844 7.69333 12.9378 7.35556 12.9733 7ZM9.45333 7V6.94667C9.48889 6.62667 9.50667 6.30667 9.50667 5.98667C9.50667 5.66667 9.47111 5.34667 9.4 5.02667H5.56C5.52444 5.34667 5.50667 5.66667 5.50667 5.98667C5.50667 6.66222 5.57778 7.33778 5.72 8.01333H9.29333C9.36445 7.65778 9.41778 7.32 9.45333 7ZM9.24 4.01333C8.99111 2.94667 8.58222 1.95111 8.01333 1.02667H7.48H7C6.39556 1.95111 5.98667 2.94667 5.77333 4.01333H9.24ZM4.70667 4.01333C4.88444 3.05333 5.20444 2.14667 5.66667 1.29333C4.99111 1.54222 4.38667 1.89778 3.85333 2.36C3.35556 2.82222 2.94667 3.37333 2.62667 4.01333H4.70667ZM2.2 4.97333C2.05778 5.47111 1.98667 5.98667 1.98667 6.52C1.98667 7.01778 2.05778 7.51556 2.2 8.01333H4.70667C4.56444 7.33778 4.49333 6.66222 4.49333 5.98667C4.49333 5.70222 4.51111 5.38222 4.54667 5.02667H2.2V4.97333ZM4.97333 8.97333H2.62667C2.98222 9.75556 3.49778 10.3956 4.17333 10.8933C4.84889 11.3911 5.59556 11.7289 6.41333 11.9067C5.77333 11.0178 5.29333 10.0578 4.97333 9.02667V8.97333ZM7.48 11.64C8.12 10.8578 8.61778 9.98667 8.97333 9.02667H6.04C6.36 9.98667 6.84 10.8578 7.48 11.64ZM10.04 8.97333C9.72 10.04 9.24 11.0178 8.6 11.9067C9.41778 11.7289 10.1467 11.3911 10.7867 10.8933C11.4622 10.3956 11.9956 9.75556 12.3867 8.97333H10.04Z" fill="#CCCCCC"/>
</svg>
