<svg height="172" viewBox="0 0 253 172" width="253" xmlns="http://www.w3.org/2000/svg" xmlns:xlink="http://www.w3.org/1999/xlink"><filter id="a" height="154.9%" width="133.3%" x="-16.7%" y="-27.5%"><feOffset dx="0" dy="8" in="SourceAlpha" result="shadowOffsetOuter1"/><feGaussianBlur in="shadowOffsetOuter1" result="shadowBlurOuter1" stdDeviation="4.5"/><feColorMatrix in="shadowBlurOuter1" result="shadowMatrixOuter1" type="matrix" values="0 0 0 0 0.854901961   0 0 0 0 0.874509804   0 0 0 0 0.901960784  0 0 0 0.5 0"/><feMerge><feMergeNode in="shadowMatrixOuter1"/><feMergeNode in="SourceGraphic"/></feMerge></filter><linearGradient id="b" x1="100%" x2="14.028418%" y1="30.094588%" y2="34.085888%"><stop offset="0" stop-color="#dfe3eb"/><stop offset="1" stop-color="#b2b6bd"/></linearGradient><linearGradient id="c" x1="100%" x2="11.62866%" y1="24.855875%" y2="24.855875%"><stop offset="0" stop-color="#d9dee5"/><stop offset="1" stop-color="#e6eaf2"/></linearGradient><linearGradient id="d" x1="75.401258%" x2="21.711347%" y1="25.528231%" y2="25.528231%"><stop offset="0" stop-color="#e2e5ed"/><stop offset="1" stop-color="#d9dee6"/></linearGradient><linearGradient id="e" x1="100%" x2="-18.567228%" y1="25.528231%" y2="25.528231%"><stop offset="0" stop-color="#c8ccd4"/><stop offset="1" stop-color="#e6ecf5"/></linearGradient><linearGradient id="f" x1="100%" x2="-9.024646%" y1="25.528231%" y2="25.528231%"><stop offset="0" stop-color="#dee2ea"/><stop offset="1" stop-color="#eceef2"/></linearGradient><linearGradient id="g" x1="100%" x2="-71.450238%" y1="48.308378%" y2="49.086005%"><stop offset="0" stop-color="#dee2ea"/><stop offset="1" stop-color="#eaedf2"/></linearGradient><g fill="none" fill-rule="evenodd" filter="url(#a)" transform="translate(25.962994 25)"><g transform="translate(.000005)"><g transform="translate(.014535 7.625)"><path d="m57.6141213 0v28.2953344c-14.2658051 0-26.1185199 10.1108415-28.4838614 23.4094448l-29.1302599.0000785c2.53117009-28.9667132 27.3592616-51.7048577 57.6141213-51.7048577z" fill="url(#b)"/><path d="m114.046563 62.500226 1.196331-7.625-.000049 7.625c-2.435206 29.0474537-27.1661438 51.874774-57.3155241 51.874774-30.1490338 0-54.8797492-22.8267955-57.31545699-51.874165l28.95686889-.0006185c2.281694 13.3823445 14.1099147 23.5794522 28.3585881 23.5794522 14.248929 0 26.0773186-10.1974737 28.3587109-23.5801727zm-113.43476194-7.625 1.30759832 7.6242198-1.30759832.0007802z" fill="url(#c)"/><path d="m143.744011 0c30.149033 0 54.879749 22.8267978 57.315457 51.8741703l-28.95704-.000382c-2.282113-13.3818535-14.110099-23.5784539-28.358417-23.5784539s-26.076304 10.1966004-28.358418 23.5784539l-28.9570391.000382c2.4357081-29.0473725 27.1664231-51.8741703 57.3154571-51.8741703z" fill="url(#d)"/></g><path d="m57.6286561 0v28.2953344c-14.3261777 0-26.2187976 10.1966004-28.5133814 23.5784539l-29.1152747.000382c2.44901797-29.0473725 27.3148738-51.8741703 57.6286561-51.8741703z" fill="#e4eaf2" fill-rule="nonzero"/><path d="m57.9418557 86.0796687c14.2489291 0 26.0773187-10.1974737 28.3587109-23.5801727l28.9568304.0003373c-2.435224 29.0478464-27.166161 51.8751667-57.3155413 51.8751667-30.1490337 0-54.87974914-22.8267955-57.31545694-51.874165l28.95686894-.0006185c2.2816939 13.3823445 14.1099147 23.5794522 28.358588 23.5794522z" fill="#f2f5fa" fill-rule="nonzero"/><path d="m143.758546 0c30.149033 0 54.879748 22.8267978 57.315457 51.8741703l-28.95704-.000382c-2.282113-13.3818535-14.110099-23.5784539-28.358417-23.5784539s-26.076305 10.1966004-28.358418 23.5784539l-28.9570393.000382c2.4357081-29.0473725 27.1664233-51.8741703 57.3154573-51.8741703z" fill="#f7fafe"/></g><path d="m0 51.874463h29.221829v7.455556h-29.221829z" fill="url(#e)"/><path d="m86.4430888 51.8747798h29.0111342v7.6246831h-29.0111342z" fill="url(#f)"/><path d="m172.071278 51.8744629h29.002734v7.6253169h-29.002734z" fill="url(#g)"/></g></svg>