<svg viewBox="0 -48 177 177" fill="none" xmlns="http://www.w3.org/2000/svg">
<path fill-rule="evenodd" clip-rule="evenodd" d="M25.5808 54.8916C27.8552 66.357 38.3139 76.0871 50.6459 76.0871C62.9779 76.0871 73.4367 66.357 75.711 54.8916H100.954C98.495 80.2102 76.6098 100 50.6459 100C24.682 100 2.79686 80.2102 0.338623 54.8916H25.5808Z" fill="white"/>
<path fill-rule="evenodd" clip-rule="evenodd" d="M100.954 45.1086C103.228 33.6431 113.687 23.9131 126.019 23.9131C138.351 23.9131 148.81 33.6431 151.084 45.1086H176.326C173.868 19.79 151.983 0 126.019 0C100.055 0 78.1695 19.79 75.7112 45.1086H100.954Z" fill="white"/>
<path d="M50.646 0C50.6461 0 50.646 0 50.646 0C24.6821 0 2.79686 19.79 0.338623 45.1086H25.5808C27.8552 33.6432 37.5985 23.9131 50.6459 23.9131C50.6459 23.9131 50.646 23.9131 50.6459 23.9131L50.646 0Z" fill="white"/>
</svg>
