<svg width="8" height="8" viewBox="0 0 12 12" fill="none" xmlns="http://www.w3.org/2000/svg">
<path d="M6 0.76C6.48 0.76 6.94667 0.813333 7.4 0.92C8.28 1.18667 9.04 1.65333 9.68 2.32C10.3467 2.96 10.8133 3.72 11.08 4.6C11.1867 5.05333 11.24 5.52 11.24 6C11.24 6.48 11.1733 6.94667 11.04 7.4C10.9333 7.82667 10.76 8.24 10.52 8.64C10.0667 9.44 9.44 10.0667 8.64 10.52C8.24 10.76 7.81333 10.9467 7.36 11.08C6.93333 11.1867 6.48 11.24 6 11.24C5.52 11.24 5.05333 11.1867 4.6 11.08C4.17333 10.9467 3.76 10.7733 3.36 10.56C2.96 10.32 2.6 10.04 2.28 9.72C1.96 9.4 1.68 9.04 1.44 8.64C1.22667 8.24 1.05333 7.82667 0.92 7.4C0.813333 6.94667 0.76 6.48 0.76 6C0.76 5.52 0.813333 5.06667 0.92 4.64C1.05333 4.18667 1.24 3.76 1.48 3.36C1.93333 2.56 2.56 1.93333 3.36 1.48C3.76 1.24 4.17333 1.06667 4.6 0.96C5.05333 0.826667 5.52 0.76 6 0.76Z" fill="#40C8AE"/>
</svg>
