<svg width="14" height="14" viewBox="0 0 14 14" fill="none" xmlns="http://www.w3.org/2000/svg">
<path d="M8.12 3.37333L7.58667 0.973333H6.41333L5.88 3.37333L5.18667 3.69333L3.21333 2.41333L2.30667 3.21333L3.58667 5.18667L3.42667 5.88L1.02667 6.41333V7.58667L3.42667 8.12L3.69333 8.92L2.41333 10.8933L3.21333 11.6933L5.18667 10.4133L5.98667 10.68L6.41333 12.9733H7.58667L8.12 10.5733L8.92 10.3067L10.8933 11.5867L11.6933 10.7867L10.4133 8.81333L10.68 8.01333L13.0267 7.58667V6.41333L10.6267 5.88L10.3067 5.08L11.5867 3.10667L10.7867 2.30667L8.81333 3.58667L8.12 3.37333ZM8.38667 0.0133333L8.92 2.41333L11 1.08L13.0267 3.10667L11.5867 5.18667L13.9867 5.61333V8.38667L11.5867 8.92L13.0267 11L11 12.9733L8.92 11.5867L8.38667 13.9867H5.61333L5.08 11.5867L3 12.92L1.02667 10.8933L2.41333 8.81333L0.0133333 8.38667V5.61333L2.41333 5.08L1.08 3L3.10667 0.973333L5.18667 2.41333L5.61333 0.0133333H8.38667ZM9.02667 7C9.02667 7.53333 8.81333 7.99556 8.38667 8.38667C7.99556 8.77778 7.53333 8.97333 7 8.97333C6.46667 8.97333 6.00444 8.77778 5.61333 8.38667C5.22222 7.99556 5.02667 7.53333 5.02667 7C5.02667 6.46667 5.22222 6.00444 5.61333 5.61333C6.00444 5.18667 6.46667 4.97333 7 4.97333C7.53333 4.97333 7.99556 5.18667 8.38667 5.61333C8.81333 6.00444 9.02667 6.46667 9.02667 7ZM7 8.01333C7.28444 8.01333 7.51556 7.92444 7.69333 7.74667C7.90667 7.53333 8.01333 7.28444 8.01333 7C8.01333 6.71556 7.90667 6.48444 7.69333 6.30667C7.51556 6.09333 7.28444 5.98667 7 5.98667C6.71556 5.98667 6.46667 6.09333 6.25333 6.30667C6.07556 6.48444 5.98667 6.71556 5.98667 7C5.98667 7.28444 6.07556 7.53333 6.25333 7.74667C6.46667 7.92444 6.71556 8.01333 7 8.01333Z" fill="#CCCCCC"/>
</svg>
